<svg width="21" height="28" viewBox="0 0 21 28" fill="none" xmlns="http://www.w3.org/2000/svg">
<path fill-rule="evenodd" clip-rule="evenodd" d="M20.3333 25.8518C20.3333 26.6696 19.6947 27.3333 18.9047 27.3333C18.1147 27.3333 17.4761 26.6696 17.4761 25.8518C17.4761 21.7674 14.2718 18.4444 10.3333 18.4444C6.39468 18.4444 3.19039 21.7674 3.19039 25.8518C3.19039 26.6696 2.55182 27.3333 1.76182 27.3333C0.971823 27.3333 0.333252 26.6696 0.333252 25.8518C0.333252 20.1333 4.82039 15.4815 10.3333 15.4815C15.8461 15.4815 20.3333 20.1333 20.3333 25.8518ZM10.3333 3.62963C11.909 3.62963 13.1904 4.95852 13.1904 6.59259C13.1904 8.22667 11.909 9.55556 10.3333 9.55556C8.75758 9.55556 7.47616 8.22667 7.47616 6.59259C7.47616 4.95852 8.75758 3.62963 10.3333 3.62963ZM10.3333 12.5185C13.4848 12.5185 16.0476 9.86073 16.0476 6.59258C16.0476 3.32443 13.4848 0.666656 10.3333 0.666656C7.18192 0.666656 4.61906 3.32443 4.61906 6.59258C4.61906 9.86073 7.18192 12.5185 10.3333 12.5185Z" fill="#52525B"/>
</svg>
