<svg width="40" height="38" viewBox="0 0 40 38" fill="none" xmlns="http://www.w3.org/2000/svg">
<path d="M6.66633 37.2135C2.98467 37.2135 0 34.2288 0 30.5472C0 26.8655 2.98467 23.8808 6.66633 23.8808C10.348 23.8808 13.3327 26.8655 13.3327 30.5472C13.3327 34.2288 10.348 37.2135 6.66633 37.2135ZM39.1068 27.2128L25.772 4.11834C23.931 0.929506 19.8535 -0.163661 16.6647 1.67734C13.4758 3.51834 12.3825 7.59584 14.2235 10.7847L27.5583 33.8792C29.3993 37.068 33.4768 38.159 36.6657 36.3202C39.8547 34.4792 40.9457 30.4017 39.1068 27.2128ZM12.5228 7.07134L2.6075 24.2457C3.81751 23.465 5.22668 23.0492 6.66667 23.0478C10.9328 23.0353 14.3747 26.6453 14.1568 30.9058L19.5182 21.6187L13.5025 11.202C12.7527 9.90317 12.4488 8.46967 12.5228 7.07134Z" fill="#F4F4F5"/>
</svg>
